---
layout: default
---

## 2018-09-23 02:20 UTC

- 2018-09-22 22:20 EDT to 2018-09-23 00:05 EDT: [@rey](https://vulpine.club/@rey) worked a queue backlog and resource exhaustion issue, and is doing further monitoring/testing to identify the cause of the issue.
  - Update #1 at 2018-09-22 23:15 EDT
    - Summary: when trying to fetch https://fedi.jort.space/objects/e8314a88-d7bc-464f-a0ad-fece8292e49b it's seizing up both web workers and sidekiq workers. [#MastoAdmin thread](https://vulpine.club/@rey/100772757547660194)
    - Symptoms: sidekiq jobs are busy for a long long time with traf to fedi.jort.space (like, I've had ones at the 2+ hour mark), and searching for that status URL via API or web UI hangs.
    - Workaround: I am able to amelorate the issue by quieting then stopping the sidekiq processes via the sidekiq UI and letting them recycle, and also by doing `docker restart mastodon_web_x` to roll over the web workers.
    - Next steps: Currently we are [missing these commits in production](https://github.com/vulpineclub/mastodon/compare/a29c2e6ed8694c432c538651616e35a1c096c1df...23e7c1c765f5e500d369fcef9f020e4eb5b337d5), so I am doing a build right now.
  - Update #2 at 2018-09-22 23:30 EDT
    - Shit was hard down for a bit.  `dockerd` was swelling and eventually the oom-killer took it out, which took out everything. Everything reset itself within about five minutes.  [#VulpineClub announcement](https://vulpine.club/@rey/100772965205981928)
  - Update #3 at 2018-09-23 00:00 EDT
    - Okay, somehow, that made everything better?  I have no idea.  Anyway, I'm deploying [prod-20180923-01](https://github.com/vulpineclub/mastodon/releases/tag/prod-20180923-01) in a few moments. We'll see how that goes.
  - MONITORING at 2018-09-23 00:05 EDT
    - Things are holding together for right now. I'm going to do further testing, but I think the performance impacts are mitigated for now.
  - Update #4 at 2018-09-23 00:30 EDT
    - Dumped all active connections a couple times over the last ten minutes while I reconfigured the timeouts on nginx.  It looks like what's happening is that the status in question causes the web worker to immediately spawn ffmpeg, which... then... hangs.
```
rtucker@smithwicks:~/vulpine.club/mastodon$ docker-compose logs -t --tail=500000 web | grep 27c502fe-1bff-423f-99b2-7eff4f4368a6
web_1         | 2018-09-23T04:30:21.032433127Z [27c502fe-1bff-423f-99b2-7eff4f4368a6] [paperclip] Trying to link /tmp/8d777f385d3dfec8815d20f7496026dc20180923-29-qotnni to /tmp/8d777f385d3dfec8815d20f7496026dc20180923-29-1tatp3t.mp4
web_1         | 2018-09-23T04:30:21.039505060Z [27c502fe-1bff-423f-99b2-7eff4f4368a6] Command :: file -b --mime '/tmp/8d777f385d3dfec8815d20f7496026dc20180923-29-1tatp3t.mp4'
web_1         | 2018-09-23T04:30:21.077223859Z [27c502fe-1bff-423f-99b2-7eff4f4368a6] [AV] Running command: if command -v avprobe 2>/dev/null; then echo "true"; else echo "false"; fi
web_1         | 2018-09-23T04:30:21.083051152Z [27c502fe-1bff-423f-99b2-7eff4f4368a6] [AV] Running command: if command -v ffmpeg 2>/dev/null; then echo "true"; else echo "false"; fi
web_1         | 2018-09-23T04:30:21.100201084Z [27c502fe-1bff-423f-99b2-7eff4f4368a6] [AV] Found ["ffmpeg"], using: Ffmpeg
web_1         | 2018-09-23T04:30:21.100241350Z [27c502fe-1bff-423f-99b2-7eff4f4368a6] [AV] Running command: if command -v avprobe 2>/dev/null; then echo "true"; else echo "false"; fi
web_1         | 2018-09-23T04:30:21.102135747Z [27c502fe-1bff-423f-99b2-7eff4f4368a6] [AV] Running command: if command -v ffmpeg 2>/dev/null; then echo "true"; else echo "false"; fi
web_1         | 2018-09-23T04:30:21.125824781Z [27c502fe-1bff-423f-99b2-7eff4f4368a6] [AV] Found ["ffmpeg"], using: Ffmpeg
web_1         | 2018-09-23T04:30:21.125875741Z [27c502fe-1bff-423f-99b2-7eff4f4368a6] [AV] Running command: ffmpeg -i "/tmp/8d777f385d3dfec8815d20f7496026dc20180923-29-qotnni" 2>&1
web_1         | 2018-09-23T04:30:21.221700477Z [27c502fe-1bff-423f-99b2-7eff4f4368a6] [paperclip] [transcoder] Transocding supported file /tmp/8d777f385d3dfec8815d20f7496026dc20180923-29-qotnni
web_1         | 2018-09-23T04:30:21.221743708Z [27c502fe-1bff-423f-99b2-7eff4f4368a6] [AV] Adding output parameter ["acodec", "aac"]
web_1         | 2018-09-23T04:30:21.221750104Z [27c502fe-1bff-423f-99b2-7eff4f4368a6] [AV] Adding output parameter ["strict", "experimental"]
web_1         | 2018-09-23T04:30:21.227439541Z [27c502fe-1bff-423f-99b2-7eff4f4368a6] [AV] Adding output parameter [:filter_complex, "\"color=c=black:s=640x360,format=yuv420p[v]\""]
web_1         | 2018-09-23T04:30:21.237316553Z [27c502fe-1bff-423f-99b2-7eff4f4368a6] [AV] Adding output parameter [:map, "\"[v]\" -map 0:a"]
web_1         | 2018-09-23T04:30:21.237453958Z [27c502fe-1bff-423f-99b2-7eff4f4368a6] [AV] Adding output parameter [:threads, 2]
web_1         | 2018-09-23T04:30:21.237481490Z [27c502fe-1bff-423f-99b2-7eff4f4368a6] [AV] Adding output parameter [:vcodec, "libx264"]
web_1         | 2018-09-23T04:30:21.237487583Z [27c502fe-1bff-423f-99b2-7eff4f4368a6] [AV] Adding output parameter [:acodec, "aac"]
web_1         | 2018-09-23T04:30:21.257571879Z [27c502fe-1bff-423f-99b2-7eff4f4368a6] [AV] Adding output parameter [:movflags, "+faststart"]
web_1         | 2018-09-23T04:30:21.257596194Z [27c502fe-1bff-423f-99b2-7eff4f4368a6] [AV] Running command: ffmpeg -i "/tmp/8d777f385d3dfec8815d20f7496026dc20180923-29-qotnni" -acodec aac -strict experimental -filter_complex "color=c=black:s=640x360,format=yuv420p[v]" -map "[v]" -map 0:a -threads 2 -vcodec libx264 -acodec aac -movflags +faststart -y "/tmp/8d777f385d3dfec8815d20f7496026dc20180923-29-qotnni20180923-29-1igq0gp.mp4"
```
(ffmpeg is still running, 5 minutes later, but the web request timed out a long time ago)
  - Update #5 at 2018-09-23 00:50 EDT
    - Identified it as a side effect of a commit awhile back to improve audio processing efficiency. [This commit has been reverted](https://github.com/vulpineclub/mastodon/commit/d2e8762c5a211fe12ca276bd2d24b6a8e82f09b6) and [prod-20180923-02](https://github.com/vulpineclub/mastodon/releases/tag/prod-20180923-02) is building as we speak.

### Postscript

Here's what it looked like when it failed:

- Getting the file
```
rtucker@smithwicks:~/vulpine.club/mastodon$ docker-compose run --rm web bash
Starting mastodon_db_1    ... done
Starting mastodon_es_1    ... done
bash-4.4$ cd /tmp
bash-4.4$ wget https://fedi.jort.space/media/727ece92-f77c-4e0d-8fef-9cb3af1c7c00/mastodon.mp4
Connecting to fedi.jort.space (71.19.146.70:443)
mastodon.mp4         100% |***********************************************************************************************************************************************************|   262k  0:00:00 ETA
```
- First conversion attempt, using the vulpine.club `-filter_complex` setting. I have to interrupt it with ctrl-C, as it was still spinning after producing over 1.25 hours of output.
```
bash-4.4$ ffmpeg -i mastodon.mp4 -acodec aac -strict experimental -filter_complex "color=c=black:s=640x360,format=yuv420p[v]" -map "[v]" -map 0:a -threads 2 -vcodec libx264 -acodec aac -movflags +faststart -y balls.mp4
ffmpeg version 3.4 Copyright (c) 2000-2017 the FFmpeg developers
  built with gcc 6.4.0 (Alpine 6.4.0)
  configuration: --prefix=/usr --enable-avresample --enable-avfilter --enable-gnutls --enable-gpl --enable-libmp3lame --enable-librtmp --enable-libvorbis --enable-libvpx --enable-libxvid --enable-libx264 --enable-libx265 --enable-libtheora --enable-libv4l2 --enable-postproc --enable-pic --enable-pthreads --enable-shared --enable-libxcb --disable-stripping --disable-static --enable-vaapi --enable-vdpau --enable-libopus --disable-debug
  libavutil      55. 78.100 / 55. 78.100
  libavcodec     57.107.100 / 57.107.100
  libavformat    57. 83.100 / 57. 83.100
  libavdevice    57. 10.100 / 57. 10.100
  libavfilter     6.107.100 /  6.107.100
  libavresample   3.  7.  0 /  3.  7.  0
  libswscale      4.  8.100 /  4.  8.100
  libswresample   2.  9.100 /  2.  9.100
  libpostproc    54.  7.100 / 54.  7.100
Input #0, mov,mp4,m4a,3gp,3g2,mj2, from 'mastodon.mp4':
  Metadata:
    major_brand     : M4A 
    minor_version   : 0
    compatible_brands: M4A mp42isom
    creation_time   : 2018-09-23T00:11:04.000000Z
    iTunSMPB        :  00000000 00000840 00000000 0000000000049FC0 00000000 00000000 00000000 00000000 00000000 00000000 00000000 00000000
  Duration: 00:00:06.87, start: 0.047891, bitrate: 313 kb/s
    Stream #0:0(und): Audio: aac (LC) (mp4a / 0x6134706D), 44100 Hz, stereo, fltp, 308 kb/s (default)
    Metadata:
      creation_time   : 2018-09-23T00:11:04.000000Z
      handler_name    : Core Media Audio
Stream mapping:
  format (graph 0) -> Stream #0:0 (libx264)
  Stream #0:0 -> #0:1 (aac (native) -> aac (native))
Press [q] to stop, [?] for help
[libx264 @ 0x7f9fc9b64160] using SAR=1/1
[libx264 @ 0x7f9fc9b64160] using cpu capabilities: MMX2 SSE2Fast SSSE3 SSE4.2 AVX FMA3 AVX2 LZCNT BMI2
[libx264 @ 0x7f9fc9b64160] profile High, level 3.0
[libx264 @ 0x7f9fc9b64160] 264 - core 148 - H.264/MPEG-4 AVC codec - Copyleft 2003-2017 - http://www.videolan.org/x264.html - options: cabac=1 ref=3 deblock=1:0:0 analyse=0x3:0x113 me=hex subme=7 psy=1 psy_rd=1.00:0.00 mixed_ref=1 me_range=16 chroma_me=1 trellis=1 8x8dct=1 cqm=0 deadzone=21,11 fast_pskip=1 chroma_qp_offset=-2 threads=2 lookahead_threads=1 sliced_threads=0 nr=0 decimate=1 interlaced=0 bluray_compat=0 constrained_intra=0 bframes=3 b_pyramid=2 b_adapt=1 b_bias=0 direct=1 weightb=1 open_gop=0 weightp=2 keyint=250 keyint_min=25 scenecut=40 intra_refresh=0 rc_lookahead=40 rc=crf mbtree=1 crf=23.0 qcomp=0.60 qpmin=0 qpmax=69 qpstep=4 ip_ratio=1.40 aq=1:1.00
Output #0, mp4, to 'balls.mp4':
  Metadata:
    major_brand     : M4A 
    minor_version   : 0
    compatible_brands: M4A mp42isom
    iTunSMPB        :  00000000 00000840 00000000 0000000000049FC0 00000000 00000000 00000000 00000000 00000000 00000000 00000000 00000000
    encoder         : Lavf57.83.100
    Stream #0:0: Video: h264 (libx264) (avc1 / 0x31637661), yuv420p(progressive), 640x360 [SAR 1:1 DAR 16:9], q=-1--1, 25 fps, 12800 tbn, 25 tbc (default)
    Metadata:
      encoder         : Lavc57.107.100 libx264
    Side data:
      cpb: bitrate max/min/avg: 0/0/0 buffer size: 0 vbv_delay: -1
    Stream #0:1(und): Audio: aac (LC) (mp4a / 0x6134706D), 44100 Hz, stereo, fltp, 128 kb/s (default)
    Metadata:
      creation_time   : 2018-09-23T00:11:04.000000Z
      handler_name    : Core Media Audio
      encoder         : Lavc57.107.100 aac
[mp4 @ 0x7f9fcbb22900] Starting second pass: moving the moov atom to the beginning of the file    
frame=117973 fps=729 q=-1.0 Lsize=    3946kB time=01:18:38.80 bitrate=   6.8kbits/s speed=29.2x    
video:2452kB audio:108kB subtitle:0kB other streams:0kB global headers:0kB muxing overhead: 54.131535%
[libx264 @ 0x7f9fc9b64160] frame I:472   Avg QP: 6.01  size:    94
[libx264 @ 0x7f9fc9b64160] frame P:29729 Avg QP: 9.06  size:    28
[libx264 @ 0x7f9fc9b64160] frame B:87772 Avg QP:12.67  size:    19
[libx264 @ 0x7f9fc9b64160] consecutive B-frames:  0.8%  0.0%  0.0% 99.2%
[libx264 @ 0x7f9fc9b64160] mb I  I16..4: 100.0%  0.0%  0.0%
[libx264 @ 0x7f9fc9b64160] mb P  I16..4:  0.0%  0.0%  0.0%  P16..4:  0.0%  0.0%  0.0%  0.0%  0.0%    skip:100.0%
[libx264 @ 0x7f9fc9b64160] mb B  I16..4:  0.0%  0.0%  0.0%  B16..8:  0.0%  0.0%  0.0%  direct: 0.0%  skip:100.0%
[libx264 @ 0x7f9fc9b64160] 8x8 transform intra:0.0%
[libx264 @ 0x7f9fc9b64160] coded y,uvDC,uvAC intra: 0.0% 0.0% 0.0% inter: 0.0% 0.0% 0.0%
[libx264 @ 0x7f9fc9b64160] i16 v,h,dc,p: 96%  0%  4%  0%
[libx264 @ 0x7f9fc9b64160] i8c dc,h,v,p: 100%  0%  0%  0%
[libx264 @ 0x7f9fc9b64160] Weighted P-Frames: Y:0.0% UV:0.0%
[libx264 @ 0x7f9fc9b64160] kb/s:4.26
[aac @ 0x7f9fc7953080] Qavg: 364.036
Exiting normally, received signal 2.
bash-4.4$ 
```
- Second conversion attempt, using upstream `-filter_complex` setting. Stops after 6.87 seconds, as it should.
```
bash-4.4$ ffmpeg -i mastodon.mp4 -acodec aac -strict experimental -filter_complex "[0:a]compand,showwaves=s=640x360:mode=line,format=yuv420p[v]" -map "[v]" -map 0:a -threads 2 -vcodec libx264 -acodec aac -movflags +faststart -y balls2.mp4
ffmpeg version 3.4 Copyright (c) 2000-2017 the FFmpeg developers
  built with gcc 6.4.0 (Alpine 6.4.0)
  configuration: --prefix=/usr --enable-avresample --enable-avfilter --enable-gnutls --enable-gpl --enable-libmp3lame --enable-librtmp --enable-libvorbis --enable-libvpx --enable-libxvid --enable-libx264 --enable-libx265 --enable-libtheora --enable-libv4l2 --enable-postproc --enable-pic --enable-pthreads --enable-shared --enable-libxcb --disable-stripping --disable-static --enable-vaapi --enable-vdpau --enable-libopus --disable-debug
  libavutil      55. 78.100 / 55. 78.100
  libavcodec     57.107.100 / 57.107.100
  libavformat    57. 83.100 / 57. 83.100
  libavdevice    57. 10.100 / 57. 10.100
  libavfilter     6.107.100 /  6.107.100
  libavresample   3.  7.  0 /  3.  7.  0
  libswscale      4.  8.100 /  4.  8.100
  libswresample   2.  9.100 /  2.  9.100
  libpostproc    54.  7.100 / 54.  7.100
Input #0, mov,mp4,m4a,3gp,3g2,mj2, from 'mastodon.mp4':
  Metadata:
    major_brand     : M4A 
    minor_version   : 0
    compatible_brands: M4A mp42isom
    creation_time   : 2018-09-23T00:11:04.000000Z
    iTunSMPB        :  00000000 00000840 00000000 0000000000049FC0 00000000 00000000 00000000 00000000 00000000 00000000 00000000 00000000
  Duration: 00:00:06.87, start: 0.047891, bitrate: 313 kb/s
    Stream #0:0(und): Audio: aac (LC) (mp4a / 0x6134706D), 44100 Hz, stereo, fltp, 308 kb/s (default)
    Metadata:
      creation_time   : 2018-09-23T00:11:04.000000Z
      handler_name    : Core Media Audio
Stream mapping:
  Stream #0:0 (aac) -> compand (graph 0)
  format (graph 0) -> Stream #0:0 (libx264)
  Stream #0:0 -> #0:1 (aac (native) -> aac (native))
Press [q] to stop, [?] for help
[libx264 @ 0x7fa970ab4080] using SAR=1/1
[libx264 @ 0x7fa970ab4080] using cpu capabilities: MMX2 SSE2Fast SSSE3 SSE4.2 AVX FMA3 AVX2 LZCNT BMI2
[libx264 @ 0x7fa970ab4080] profile High, level 3.0
[libx264 @ 0x7fa970ab4080] 264 - core 148 - H.264/MPEG-4 AVC codec - Copyleft 2003-2017 - http://www.videolan.org/x264.html - options: cabac=1 ref=3 deblock=1:0:0 analyse=0x3:0x113 me=hex subme=7 psy=1 psy_rd=1.00:0.00 mixed_ref=1 me_range=16 chroma_me=1 trellis=1 8x8dct=1 cqm=0 deadzone=21,11 fast_pskip=1 chroma_qp_offset=-2 threads=2 lookahead_threads=1 sliced_threads=0 nr=0 decimate=1 interlaced=0 bluray_compat=0 constrained_intra=0 bframes=3 b_pyramid=2 b_adapt=1 b_bias=0 direct=1 weightb=1 open_gop=0 weightp=2 keyint=250 keyint_min=22 scenecut=40 intra_refresh=0 rc_lookahead=40 rc=crf mbtree=1 crf=23.0 qcomp=0.60 qpmin=0 qpmax=69 qpstep=4 ip_ratio=1.40 aq=1:1.00
Output #0, mp4, to 'balls2.mp4':
  Metadata:
    major_brand     : M4A 
    minor_version   : 0
    compatible_brands: M4A mp42isom
    iTunSMPB        :  00000000 00000840 00000000 0000000000049FC0 00000000 00000000 00000000 00000000 00000000 00000000 00000000 00000000
    encoder         : Lavf57.83.100
    Stream #0:0: Video: h264 (libx264) (avc1 / 0x31637661), yuv420p, 640x360 [SAR 1:1 DAR 16:9], q=-1--1, 22.97 fps, 11760 tbn, 22.97 tbc (default)
    Metadata:
      encoder         : Lavc57.107.100 libx264
    Side data:
      cpb: bitrate max/min/avg: 0/0/0 buffer size: 0 vbv_delay: -1
    Stream #0:1(und): Audio: aac (LC) (mp4a / 0x6134706D), 44100 Hz, stereo, fltp, 128 kb/s (default)
    Metadata:
      creation_time   : 2018-09-23T00:11:04.000000Z
      handler_name    : Core Media Audio
      encoder         : Lavc57.107.100 aac
[mp4 @ 0x7fa974c836e0] Starting second pass: moving the moov atom to the beginning of the file   
frame=  158 fps=102 q=-1.0 Lsize=     403kB time=00:00:06.87 bitrate= 480.5kbits/s speed=4.43x    
video:290kB audio:108kB subtitle:0kB other streams:0kB global headers:0kB muxing overhead: 1.500112%
[libx264 @ 0x7fa970ab4080] frame I:10    Avg QP:11.03  size:  4098
[libx264 @ 0x7fa970ab4080] frame P:65    Avg QP:21.63  size:  1931
[libx264 @ 0x7fa970ab4080] frame B:83    Avg QP:21.84  size:  1558
[libx264 @ 0x7fa970ab4080] consecutive B-frames: 19.6% 27.8%  9.5% 43.0%
[libx264 @ 0x7fa970ab4080] mb I  I16..4: 81.4%  5.1% 13.4%
[libx264 @ 0x7fa970ab4080] mb P  I16..4:  1.8%  5.1%  4.5%  P16..4:  5.6%  3.4%  1.3%  0.0%  0.0%    skip:78.3%
[libx264 @ 0x7fa970ab4080] mb B  I16..4:  0.7%  0.9%  2.5%  B16..8:  9.3%  3.5%  0.8%  direct: 0.6%  skip:81.7%  L0:51.7% L1:46.3% BI: 2.0%
[libx264 @ 0x7fa970ab4080] 8x8 transform intra:21.7% inter:9.5%
[libx264 @ 0x7fa970ab4080] coded y,uvDC,uvAC intra: 23.1% 33.5% 31.2% inter: 2.6% 2.0% 1.3%
[libx264 @ 0x7fa970ab4080] i16 v,h,dc,p: 87%  8%  5%  0%
[libx264 @ 0x7fa970ab4080] i8 v,h,dc,ddl,ddr,vr,hd,vl,hu: 19%  9% 70%  0%  0%  1%  0%  0%  0%
[libx264 @ 0x7fa970ab4080] i4 v,h,dc,ddl,ddr,vr,hd,vl,hu: 49% 16% 24%  2%  1%  3%  1%  2%  1%
[libx264 @ 0x7fa970ab4080] i8c dc,h,v,p: 71% 14% 12%  3%
[libx264 @ 0x7fa970ab4080] Weighted P-Frames: Y:9.2% UV:9.2%
[libx264 @ 0x7fa970ab4080] ref P L0: 65.2%  3.0% 19.6% 11.9%  0.3%
[libx264 @ 0x7fa970ab4080] ref B L0: 72.4% 24.4%  3.2%
[libx264 @ 0x7fa970ab4080] ref B L1: 92.8%  7.2%
[libx264 @ 0x7fa970ab4080] kb/s:344.07
[aac @ 0x7fa972cc51e0] Qavg: 364.036
bash-4.4$
```